# xmcd CD database file
#
# Track frame offsets:
#	150
#	15820
#	40860
#	66750
#	87870
#	104690
#	132292
#	153480
#	174027
#	194852
#	214592
#	237327
#
# Disc length: 3567 seconds
#
# Revision: 0
# Processed by: cddbd v1.5.2PL0 Copyright (c) Steve Scherf et al.
# Submitted via: CDex 1.70beta2
#
DISCID=9a0ded0c
DTITLE=Heiner Franz, Thomas Krisch, Uwe Heitz - Gouache
DYEAR=1989
DGENRE=Jazz
TTITLE0=Jardis Blues
TTITLE1=Con Alima
TTITLE2=Chega De Saudade
TTITLE3=Gouache
TTITLE4=Lush Life
TTITLE5=If I Should Loose You
TTITLE6=Pequendo Passeio
TTITLE7=Body and Soul
TTITLE8=Ballad To J.S.B.
TTITLE9=Solar
TTITLE10=Polka Dots An d Moonbeams
TTITLE11=Summertime
EXTD=YEAR: 1989
EXTT0=
EXTT1=
EXTT2=
EXTT3=
EXTT4=
EXTT5=
EXTT6=
EXTT7=
EXTT8=
EXTT9=
EXTT10=
EXTT11=
PLAYORDER=
